:SAMPLES-PER-SECOND 30
:FULLY-SPECIFIED
:DEGREES
424
root  -49.8794 40.1034 -12.3731 0.386658 36.4944 2.35638
RightUpLeg  4.40025 -12.9785 -9.28017
RightLeg  11.5978 -3.1487 1.39244
RightFoot  -11.7965 -0.0604959 4.92424
RightToes  5.82063e-011 0 -3.6325e-017
Spine  7.88171 0.475337 13.1894
Spine1  6.89582 2.68393 -5.36429
HEad  -17.6433 30.8642 -13.3115
LeftShoulder1  -0.038063 3.61042 -29.6994
LeftArm  1.55134 12.8556 -41.3889
LeftForeArm  16.6292 -19.0708 -4.94045
LeftHand  -0.0587865 2.36313 1.7681
RightShoulder  -0.410879 -4.80263 24.6985
RightArm  13.2517 -1.60131 42.625
RightForeArm  -1.25048 14.7349 5.65806
RightHand  -0.861496 5.68396 -9.31559
LeftUpLeg  -17.3088 6.39162 -4.32327
LeftLeg  35.4968 -3.46247 -2.29608
LeftFoot  -8.96642 0.106845 -2.54503
LeftToes  2.58842e-009 -1.78069e-010 3.24654e-012
425
root  -49.8627 40.1424 -11.8396 0.944473 39.5187 3.19859
RightUpLeg  6.59445 -12.7948 -9.39214
RightLeg  9.91695 -6.33561 1.2772
RightFoot  -12.094 -0.0490122 5.04142
RightToes  5.82063e-011 0 -3.6325e-017
Spine  8.26206 0.79269 13.112
Spine1  6.68243 3.1439 -6.09096
HEad  -17.2771 28.3241 -12.88
LeftShoulder1  0.064133 3.324 -29.5624
LeftArm  -2.15597 13.0571 -41.42
LeftForeArm  19.147 -15.2915 -6.04657
LeftHand  -0.0425161 3.04805 1.403
RightShoulder  -0.472777 -4.98333 25.1081
RightArm  14.5719 -0.641231 43.4138
RightForeArm  -2.68729 17.1047 5.34963
RightHand  -0.925295 5.81445 -9.87294
LeftUpLeg  -17.9074 7.41928 -5.33684
LeftLeg  29.3898 -4.09348 -2.14376
LeftFoot  -8.96239 0.117765 -3.08624
LeftToes  2.58842e-009 -1.78069e-010 3.24654e-012
426
root  -49.7357 40.1449 -11.3067 1.95544 42.2695 4.02663
RightUpLeg  8.24176 -12.7457 -9.40399
RightLeg  8.40349 -9.18433 1.33045
RightFoot  -12.3669 -0.0379088 5.13095
RightToes  5.82063e-011 0 -3.6325e-017
Spine  7.45434 0.998298 13.1231
Spine1  7.57886 3.4627 -6.93964
HEad  -17.3567 26.2966 -12.2492
LeftShoulder1  0.087732 3.2557 -29.1958
LeftArm  -4.71377 13.6654 -41.6956
LeftForeArm  20.6994 -12.293 -6.72173
LeftHand  -0.0530915 3.69316 2.08981
RightShoulder  -0.464781 -4.95126 25.247
RightArm  15.7762 0.83451 44.6356
RightForeArm  -3.28524 19.1525 5.12372
RightHand  -0.854134 5.73546 -9.24037
LeftUpLeg  -18.3407 8.81758 -6.60053
LeftLeg  22.2351 -4.61683 -1.67111
LeftFoot  -8.71631 0.121752 -3.01471
LeftToes  2.58842e-009 -1.78069e-010 3.24654e-012
427
root  -49.5833 40.1256 -10.7979 2.57535 44.8498 4.64684
RightUpLeg  10.2224 -12.5028 -9.16225
RightLeg  6.61953 -11.9329 1.5298
RightFoot  -12.5659 -0.0273731 5.42296
RightToes  5.82063e-011 0 -3.6325e-017
Spine  7.74812 1.18327 12.6159
Spine1  7.44048 3.63728 -7.08094
HEad  -17.0341 24.5013 -11.8539
LeftShoulder1  0.0706249 3.30516 -29.4891
LeftArm  -6.70284 14.3978 -41.4503
LeftForeArm  22.9556 -9.66409 -6.85908
LeftHand  -0.0233116 4.5041 0.153386
RightShoulder  -0.467392 -4.95496 25.3173
RightArm  16.2627 2.16766 45.7408
RightForeArm  -3.33776 20.5964 5.01105
RightHand  -0.89299 7.21387 -8.54285
LeftUpLeg  -18.1092 8.69636 -7.25213
LeftLeg  14.6867 -2.52624 -1.05197
LeftFoot  -8.14352 0.14292 -3.39876
LeftToes  2.58842e-009 -1.78069e-010 3.24654e-012
428
root  -49.3446 40.0944 -10.2742 3.03923 46.9537 4.97415
RightUpLeg  12.1533 -11.9507 -8.55541
RightLeg  4.70443 -14.6626 1.69559
RightFoot  -12.6261 -0.0238373 5.5254
RightToes  5.82063e-011 0 -3.6325e-017
Spine  7.24114 1.3092 11.9918
Spine1  8.47118 3.69352 -6.92809
HEad  -17.5135 23.4201 -11.7875
LeftShoulder1  0.0011439 3.50077 -29.7597
LeftArm  -7.29652 15.2784 -41.5312
LeftForeArm  24.3976 -7.67499 -6.92853
LeftHand  -0.0298813 5.27325 0.991534
RightShoulder  -0.385966 -4.72137 24.7223
RightArm  16.6476 3.70467 47.4528
RightForeArm  -4.46879 21.809 5.07284
RightHand  -0.947301 6.97461 -9.21322
LeftUpLeg  -17.5839 4.03168 -5.93477
LeftLeg  7.63067 5.14537 -1.86309
LeftFoot  -6.96445 0.158576 -3.0323
LeftToes  2.58842e-009 -1.78069e-010 3.24654e-012
429
root  -48.9854 39.9856 -9.73048 3.39047 48.8407 4.97118
RightUpLeg  13.8427 -11.785 -8.0826
RightLeg  3.39262 -16.567 2.24204
RightFoot  -13.0618 -0.00198615 5.75229
RightToes  5.82063e-011 0 -3.6325e-017
Spine  6.92066 1.5699 11.8919
Spine1  8.86721 4.01816 -7.18237
HEad  -17.8309 21.9732 -11.4882
LeftShoulder1  0.0436804 3.38221 -29.7673
LeftArm  -7.33885 16.5662 -41.5227
LeftForeArm  25.9185 -6.29585 -6.85427
LeftHand  -0.0200456 5.35546 0.151738
RightShoulder  -0.486405 -5.02694 25.1053
RightArm  16.4437 4.7268 48.3228
RightForeArm  -3.7089 23.0187 5.13413
RightHand  -0.925223 7.08511 -8.93489
LeftUpLeg  -17.2141 0.376251 -5.08648
LeftLeg  1.46572 11.6669 -2.44509
LeftFoot  -5.48545 0.189352 -3.07834
LeftToes  2.58842e-009 -1.78069e-010 3.24654e-012
